<?xml version="1.0" encoding="UTF-8" standalone="no"?>
<svg
   xmlns:dc="http://purl.org/dc/elements/1.1/"
   xmlns:cc="http://creativecommons.org/ns#"
   xmlns:rdf="http://www.w3.org/1999/02/22-rdf-syntax-ns#"
   xmlns:svg="http://www.w3.org/2000/svg"
   xmlns="http://www.w3.org/2000/svg"
   xmlns:xlink="http://www.w3.org/1999/xlink"
   xmlns:sodipodi="http://sodipodi.sourceforge.net/DTD/sodipodi-0.dtd"
   xmlns:inkscape="http://www.inkscape.org/namespaces/inkscape"
   width="28.799158579272234cm"
   height="36.10499804448153cm"
   viewBox="-1.675278404606777 -30.20999608896308 55.92303875393769 41.999999999999986"
   version="1.1"
   id="svg8"
   sodipodi:docname="Reading.svg"
   inkscape:version="0.92.4 5da689c313, 2019-01-14">
  <metadata
     id="metadata14">
    <rdf:RDF>
      <cc:Work
         rdf:about="">
        <dc:format>image/svg+xml</dc:format>
        <dc:type
           rdf:resource="http://purl.org/dc/dcmitype/StillImage" />
      </cc:Work>
    </rdf:RDF>
  </metadata>
  <defs
     id="defs12">
    <symbol
       id="DoubleDoor">
      <path
         style="fill:none;stroke:#000000;stroke-width:0.2;stroke-linecap:butt;stroke-linejoin:butt;stroke-miterlimit:4;stroke-dasharray:none"
         d="M 1 1 v -0.729927007299 a 0.729927007299,0.729927007299 0 0 1 0.729927007299 0.729927007299 a 0.729927007299 0.729927007299 0 0 1 0.729927007299 -0.729927007299 v 0.729927007299 z"
         id="path3" />
    </symbol>
    <symbol
       id="LeftDoor">
      <path
         style="fill:none;stroke:#000000;stroke-width:0.2;stroke-linecap:butt;stroke-linejoin:butt;stroke-miterlimit:4;stroke-dasharray:none"
         d="M 1 1 v -0.729927007299 a 0.729927007299,0.729927007299 0 0 1 0.729927007299 0.729927007299 z"
         id="path6" />
    </symbol>
    <symbol
       id="RightDoor">
      <path
         style="fill:none;stroke:#000000;stroke-width:0.2;stroke-linecap:butt;stroke-linejoin:butt;stroke-miterlimit:4;stroke-dasharray:none"
         d="M 1 1 a 0.729927007299 0.729927007299 0 0 1 0.729927007299 -0.729927007299 v 0.729927007299 z"
         id="path9" />
    </symbol>
  </defs>
  <sodipodi:namedview
     pagecolor="#ffffff"
     bordercolor="#666666"
     borderopacity="1"
     objecttolerance="10"
     gridtolerance="10"
     guidetolerance="10"
     inkscape:pageopacity="0"
     inkscape:pageshadow="2"
     inkscape:window-width="1918"
     inkscape:window-height="1042"
     id="namedview10"
     showgrid="false"
     inkscape:zoom="1.118523"
     inkscape:cx="269.21104"
     inkscape:cy="633.00255"
     inkscape:window-x="2560"
     inkscape:window-y="18"
     inkscape:window-maximized="0"
     inkscape:current-layer="g4" />
  <g
     inkscape:groupmode="layer"
     inkscape:label="General"
     style="display:inline"
     id="g6">
    <g
       inkscape:groupmode="layer"
       inkscape:label="VenueFloorplan"
       style="display:inline"
       id="g4"
       sodipodi:insensitive="true">
      <path
         style="fill:none;stroke:#000000;stroke-width:0.48349056;stroke-linecap:butt;stroke-miterlimit:4;stroke-dasharray:none"
         d="m 1,1 -1.6752784,0.512184 2.390192,7.8179659 h 1.0218978 v 1.4598541 h 1.0218979 v 0.729927 h 2.4817518 v -0.583942 h 2.4817518 v 0.583942 h 7.1532851 v -0.583942 h 2.481751 v 0.583942 h 2.481752 V 10.935989 H 22.15287 V 9.7681061 h 3.79562 V 11.373946 H 44.196665 V -1.4727698 h 2.189781 V -12.27569 H 32.809804 V -24.684449 H 25.94849 q -1.167707,0 -1.167707,1.167707 v 1.459854 h 1.60584 v 1.89781 h -1.60584 v 1.313869 h 0.291971 v 0.729927 h -0.291971 v 1.313869 h 1.60584 v 1.751824 h -1.60584 v 5.6934311 q 0,-1.0322731 1.032273,-1.0322731 v -0.583941 h 1.167883 v 0.583941 h 0.875913 l 1.41011,0.377838 h 2.189781 l 1.238728,-1.238727 v -1.167883 h -8.029197"
         id="path2"
         inkscape:connector-curvature="0" />
      <path
         style="fill:none;stroke:#000000;stroke-width:0.5;stroke-linecap:butt"
         d="m 0.02275426,1.298774 -0.512184,-1.6752784 0.55842613,-0.170728 H 3.2806752 v -3.3576642 h 8.7591238 v 0.2919708 h 10.072993 v 3.2116788 m 0,1.7518248 v 2.4817518 m 0,1.7518249 v 0.2919708 m 0,1.7518248 v 0.2919708"
         id="path15"
         inkscape:connector-curvature="0" />
      <path
         style="fill:none;stroke:#000000;stroke-width:0.5;stroke-linecap:butt"
         d="m 3.2806752,-1.131174 h 4.5255475 l 0.5161363,0.51613633 h 3.50365 L 13.27119,-2.0602194 v -1.459854"
         id="path17"
         inkscape:connector-curvature="0" />
      <path
         style="fill:none;stroke:#000000;stroke-width:0.5;stroke-linecap:butt"
         d="m 44.196665,-1.4727698 h -0.29197 m -1.459854,0 H 42.15287 m -2.043796,0 h -0.583941 m -1.897811,0 h -0.29197 m -1.897811,0 H 34.8536 m -1.89781,0 h -0.291971 m -1.89781,0 h -4.817342 v -5.1094891 q -1.167884,0 -1.167884,-1.1678832 v -1.7518248"
         id="path19"
         inkscape:connector-curvature="0" />
      <g
         id="Slide Doors">
        <path
           style="fill:none;stroke:#0000ff;stroke-width:0.2;stroke-linecap:butt"
           d="M 22.112792,-0.401247 V 1.3505778"
           id="path21"
           inkscape:connector-curvature="0" />
        <path
           style="fill:none;stroke:#0000ff;stroke-width:0.2;stroke-linecap:butt"
           d="M 22.112792,3.8323296 V 5.5841545"
           id="path23"
           inkscape:connector-curvature="0" />
        <path
           style="fill:none;stroke:#0000ff;stroke-width:0.2;stroke-linecap:butt"
           d="M 22.112792,5.8761253 V 7.6279501"
           id="path25"
           inkscape:connector-curvature="0" />
        <path
           style="fill:none;stroke:#0000ff;stroke-width:0.2;stroke-linecap:butt"
           d="M 22.112792,7.9199209 V 9.6717457"
           id="path27"
           inkscape:connector-curvature="0" />
        <path
           style="fill:none;stroke:#0000ff;stroke-width:0.2;stroke-linecap:butt"
           d="M 43.904695,-1.4727698 H 42.444841"
           id="path29"
           inkscape:connector-curvature="0" />
        <path
           style="fill:none;stroke:#0000ff;stroke-width:0.2;stroke-linecap:butt"
           d="M 42.15287,-1.4727698 H 40.109074"
           id="path31"
           inkscape:connector-curvature="0" />
        <path
           style="fill:none;stroke:#0000ff;stroke-width:0.2;stroke-linecap:butt"
           d="M 39.525133,-1.4727698 H 37.627322"
           id="path33"
           inkscape:connector-curvature="0" />
        <path
           style="fill:none;stroke:#0000ff;stroke-width:0.2;stroke-linecap:butt"
           d="M 37.335352,-1.4727698 H 35.437541"
           id="path35"
           inkscape:connector-curvature="0" />
        <path
           style="fill:none;stroke:#0000ff;stroke-width:0.2;stroke-linecap:butt"
           d="M 34.8536,-1.4727698 H 32.95579"
           id="path37"
           inkscape:connector-curvature="0" />
        <path
           style="fill:none;stroke:#0000ff;stroke-width:0.2;stroke-linecap:butt"
           d="m 32.663819,-1.4727698 h -1.89781"
           id="path39"
           inkscape:connector-curvature="0" />
      </g>
      <path
         style="fill:none;stroke:#000000;stroke-width:0.1;stroke-linecap:butt"
         d="m 46.386446,-4.830434 h -2.481751 l -1.343803,-0.5704105 -0.66276,-1.3007394 1.140821,-2.6876054 2.528541,-1.4598537 h 0.875913"
         id="path42"
         inkscape:connector-curvature="0" />
      <path
         style="fill:none;stroke:#000000;stroke-width:0.5;stroke-linecap:butt"
         d="M 22.112792,-3.6129258 H 25.93761"
         id="path44"
         inkscape:connector-curvature="0" />
      <path
         style="fill:none;stroke:#000000;stroke-width:0.5;stroke-linecap:butt"
         d="M 46.386446,-12.27569 V -24.684449 H 53.24776"
         id="path46"
         inkscape:connector-curvature="0" />
      <path
         style="fill:none;stroke:#000000;stroke-width:0.2;stroke-linecap:butt"
         d="m 44.488636,-15.195398 v -5.547445 h -5.109489 v 5.547445 h 5.109489 m -5.109489,-5.547445 5.109489,5.547445 m -5.109489,0 5.109489,-5.547445"
         id="path48"
         inkscape:connector-curvature="0" />
      <path
         style="fill:none;stroke:#000000;stroke-width:0.2;stroke-linecap:butt"
         d="m 39.379147,-15.195398 v -5.547445 h -5.109489 v 5.547445 h 5.109489 l -5.109489,-5.547445 m 0,5.547445 5.109489,-5.547445"
         id="path50"
         inkscape:connector-curvature="0" />
      <path
         style="fill:none;stroke:#000000;stroke-width:0.5;stroke-linecap:butt"
         d="m 31.787906,-24.684449 v -2.043795"
         id="path52"
         inkscape:connector-curvature="0" />
      <path
         style="fill:none;stroke:#000000;stroke-width:0.5;stroke-linecap:butt"
         d="m 20.360967,-3.6129258 v -1.3138686 q 0,-1.4598541 -1.459854,-1.4598541 V -15.8757 l -0.516136,-0.516136 2.064545,-2.064545 -2.580681,-2.580682 q -0.825819,-0.825818 0,-1.651636 l 0.825818,-0.825818 q 0.825818,-0.825818 0,-1.651637 l -0.929046,-0.929045 q -0.825818,-0.825818 -1.993701,-0.825818 H 15.18797 v -2.288979 h 5.213075 v 2.043796 h 0.291971 v -0.729927 h 4.963503 v 0.875912 h 5.10949 v 0.291971 h 2.043795 v -0.291971 h 3.50365 v -0.291971 h 5.547445 v -0.729927 h 5.255474 v 1.167883 h 6.131387 v -1.167883"
         id="path54"
         inkscape:connector-curvature="0" />
      <!--Scaling values used 20.0/68.5 Scale factor = 0.291970802919708-->
      <circle
         cx="3.6277373"
         cy="1.2919708"
         r="0.729927"
         id="circle56"
         style="fill:#000000" />
      <circle
         cx="3.6277373"
         cy="8.0072994"
         r="0.729927"
         id="circle58"
         style="fill:#000000" />
      <circle
         cx="8.4452553"
         cy="8.0072994"
         r="0.729927"
         id="circle60"
         style="fill:#000000" />
      <circle
         cx="15.59854"
         cy="8.0072994"
         r="0.729927"
         id="circle62"
         style="fill:#000000" />
      <circle
         style="display:none;fill:#000000"
         cx="20.416058"
         cy="8.0072994"
         r="0.729927"
         id="circle64" />
      <use
         xlink:href="#DoubleDoor"
         x="-1.4894297"
         y="-1.3765044"
         transform="rotate(73,-0.48942974,-0.3765044)"
         id="use66"
         width="100%"
         height="100%" />
      <use
         xlink:href="#DoubleDoor"
         x="10.722213"
         y="10.519931"
         id="use68"
         width="100%"
         height="100%" />
      <use
         xlink:href="#DoubleDoor"
         x="21.65287"
         y="8.7681065"
         transform="rotate(180,23.382797,9.7681061)"
         id="use70"
         width="100%"
         height="100%" />
      <use
         xlink:href="#DoubleDoor"
         x="23.15287"
         y="8.7681065"
         transform="rotate(180,24.882797,9.7681061)"
         id="use72"
         width="100%"
         height="100%" />
      <use
         xlink:href="#DoubleDoor"
         x="27.364548"
         y="10.519931"
         transform="rotate(180,29.094476,11.519931)"
         id="use74"
         width="100%"
         height="100%" />
      <use
         xlink:href="#DoubleDoor"
         x="39.627323"
         y="10.519931"
         transform="rotate(180,41.357249,11.519931)"
         id="use76"
         width="100%"
         height="100%" />
      <use
         xlink:href="#DoubleDoor"
         x="43.696667"
         y="-2.4727697"
         transform="rotate(180,45.426592,-1.4727698)"
         id="use78"
         width="100%"
         height="100%" />
      <use
         xlink:href="#DoubleDoor"
         x="43.696667"
         y="-13.275689"
         id="use80"
         width="100%"
         height="100%" />
      <use
         xlink:href="#DoubleDoor"
         x="32.309803"
         y="-13.275689"
         id="use82"
         width="100%"
         height="100%" />
      <use
         xlink:href="#DoubleDoor"
         x="30.787907"
         y="-27.428244"
         transform="rotate(90,31.787906,-26.428244)"
         id="use84"
         width="100%"
         height="100%" />
      <use
         xlink:href="#DoubleDoor"
         x="21.65287"
         y="-4.612926"
         id="use86"
         width="100%"
         height="100%" />
      <use
         xlink:href="#DoubleDoor"
         x="23.15287"
         y="-4.612926"
         id="use88"
         width="100%"
         height="100%" />
      <use
         xlink:href="#DoubleDoor"
         x="19.560966"
         y="-4.612926"
         id="use90"
         width="100%"
         height="100%" />
      <use
         xlink:href="#DoubleDoor"
         x="23.780783"
         y="-10.301967"
         transform="rotate(90,24.780783,-9.3019669)"
         id="use92"
         width="100%"
         height="100%" />
      <use
         xlink:href="#DoubleDoor"
         x="12.771191"
         y="-4.5200734"
         transform="rotate(180,14.401117,-3.5200734)"
         id="use94"
         width="100%"
         height="100%" />
      <use
         xlink:href="#RightDoor"
         x="2.6587093"
         y="9.7900038"
         transform="rotate(180,3.6587093,10.790004)"
         id="use96"
         width="100%"
         height="100%" />
      <use
         xlink:href="#LeftDoor"
         x="20.952869"
         y="9.9359894"
         transform="rotate(180,21.95287,10.935989)"
         id="use98"
         width="100%"
         height="100%" />
      <use
         xlink:href="#LeftDoor"
         x="20.952869"
         y="9.9359894"
         transform="rotate(180,21.95287,10.935989)"
         id="use100"
         width="100%"
         height="100%" />
      <use
         xlink:href="#LeftDoor"
         x="25.086622"
         y="-16.049589"
         transform="rotate(180,26.086623,-15.049589)"
         id="use102"
         width="100%"
         height="100%" />
      <use
         xlink:href="#RightDoor"
         x="24.386623"
         y="-23.056889"
         id="use104"
         width="100%"
         height="100%" />
    </g>
  </g>
</svg>
